{
  "accessors": [
    {
      "bufferView": 2,
      "componentType": 5126,
      "count": 2183,
      "max": [
        146.41935729980469,
        146.40220642089844,
        -0.13209629058837891
      ],
      "min": [
        -146.41935729980469,
        -146.40219116210938,
        -28.675991058349609
      ],
      "type": "VEC3"
    },
    {
      "bufferView": 2,
      "byteOffset": 26196,
      "componentType": 5126,
      "count": 2183,
      "max": [
        1,
        1,
        1
      ],
      "min": [
        -1,
        -1,
        -1
      ],
      "type": "VEC3"
    },
    {
      "bufferView": 3,
      "componentType": 5126,
      "count": 2183,
      "max": [
        1,
        1,
        0.98744076490402222,
        1
      ],
      "min": [
        -1,
        -1,
        -0.98744070529937744,
        -1
      ],
      "type": "VEC4"
    },
    {
      "bufferView": 1,
      "componentType": 5126,
      "count": 2183,
      "max": [
        1,
        1.0000001192092896
      ],
      "min": [
        -0.027777671813964844,
        -1.0078983306884766
      ],
      "type": "VEC2"
    },
    {
      "bufferView": 0,
      "componentType": 5125,
      "count": 5532,
      "max": [
        2182
      ],
      "min": [
        0
      ],
      "type": "SCALAR"
    }
  ],
  "asset": {
    "extras": {
      "author": "Anthony Yanez (https://sketchfab.com/paulyanez)",
      "license": "CC-BY-4.0 (http://creativecommons.org/licenses/by/4.0/)",
      "source": "https://sketchfab.com/models/dbf9945cc49340c0a50f57338a3786ab",
      "title": "Coin (Super Mario Bros)"
    },
    "generator": "Sketchfab-3.54.8-rc1",
    "version": "2.0"
  },
  "bufferViews": [
    {
      "buffer": 0,
      "byteLength": 22128,
      "byteOffset": 0,
      "name": "floatBufferViews",
      "target": 34963
    },
    {
      "buffer": 0,
      "byteLength": 17464,
      "byteOffset": 22128,
      "byteStride": 8,
      "name": "floatBufferViews",
      "target": 34962
    },
    {
      "buffer": 0,
      "byteLength": 52392,
      "byteOffset": 39592,
      "byteStride": 12,
      "name": "floatBufferViews",
      "target": 34962
    },
    {
      "buffer": 0,
      "byteLength": 34928,
      "byteOffset": 91984,
      "byteStride": 16,
      "name": "floatBufferViews",
      "target": 34962
    }
  ],
  "buffers": [
    {
      "byteLength": 126912,
      "uri": "scene.bin"
    }
  ],
  "materials": [
    {
      "doubleSided": true,
      "emissiveFactor": [
        0.10000000000000001,
        0.075113770050000001,
        0
      ],
      "name": "01_-_Default",
      "pbrMetallicRoughness": {
        "baseColorFactor": [
          0.65098,
          0.41176499999999999,
          0,
          1
        ],
        "metallicFactor": 0.77136364560000004,
        "roughnessFactor": 0.36803029379999996
      }
    }
  ],
  "meshes": [
    {
      "name": "Cylinder001_01 - Default_0",
      "primitives": [
        {
          "attributes": {
            "NORMAL": 1,
            "POSITION": 0,
            "TANGENT": 2,
            "TEXCOORD_0": 3
          },
          "indices": 4,
          "material": 0,
          "mode": 4
        }
      ]
    }
  ],
  "nodes": [
    {
      "children": [
        1
      ],
      "name": "RootNode (gltf orientation matrix)",
      "rotation": [
        -0.70710678118654746,
        -0,
        -0,
        0.70710678118654757
      ]
    },
    {
      "children": [
        2
      ],
      "name": "RootNode (model correction matrix)"
    },
    {
      "children": [
        3
      ],
      "matrix": [
        1,
        0,
        0,
        0,
        0,
        0,
        1,
        0,
        0,
        -1,
        0,
        0,
        0,
        0,
        0,
        1
      ],
      "name": "4051e9cf16e34da1b514f37b9b7e8920.fbx"
    },
    {
      "children": [
        4
      ],
      "name": "RootNode"
    },
    {
      "children": [
        5
      ],
      "matrix": [
        0.99999999999999989,
        -4.6930783701284506e-15,
        -1.1844278446915273e-08,
        0,
        6.3217338973408536e-15,
        0.99999999999999056,
        1.375056770669398e-07,
        0,
        1.5053667356726791e-08,
        -1.7476494929637886e-07,
        1.2709653377532837,
        0,
        0,
        146.37303161621094,
        17.081077575683594,
        1
      ],
      "name": "Cylinder001"
    },
    {
      "mesh": 0,
      "name": "Cylinder001_01 - Default_0"
    }
  ],
  "scene": 0,
  "scenes": [
    {
      "name": "OSG_Scene",
      "nodes": [
        0
      ]
    }
  ]
}

