{
  "accessors": [
    {
      "bufferView": 1,
      "componentType": 5126,
      "count": 1238,
      "max": [
        3.3702070713043213,
        4.7877645492553711,
        2.7657828330993652
      ],
      "min": [
        -1.9240665435791016,
        -0.31551671028137207,
        -2.2128973007202148
      ],
      "type": "VEC3"
    },
    {
      "bufferView": 1,
      "byteOffset": 14856,
      "componentType": 5126,
      "count": 1238,
      "max": [
        0.99823826551437378,
        0.99882596731185913,
        0.99881023168563843
      ],
      "min": [
        -0.99978178739547729,
        -0.99993592500686646,
        -0.99974572658538818
      ],
      "type": "VEC3"
    },
    {
      "bufferView": 2,
      "componentType": 5126,
      "count": 1238,
      "max": [
        0.99886935949325562,
        0.99963444471359253,
        0.99932229518890381,
        1
      ],
      "min": [
        -0.99910563230514526,
        -0.9900740385055542,
        -0.99977701902389526,
        1
      ],
      "type": "VEC4"
    },
    {
      "bufferView": 2,
      "byteOffset": 19808,
      "componentType": 5126,
      "count": 1238,
      "max": [
        0.47058823704719543,
        0.7137255072593689,
        0.45490196347236633,
        1
      ],
      "min": [
        0.10588235408067703,
        0.19607843458652496,
        0.12941177189350128,
        1
      ],
      "type": "VEC4"
    },
    {
      "bufferView": 0,
      "componentType": 5125,
      "count": 3339,
      "max": [
        1237
      ],
      "min": [
        0
      ],
      "type": "SCALAR"
    }
  ],
  "asset": {
    "extras": {
      "author": "Xillute | Dev (https://sketchfab.com/janchristian)",
      "license": "CC-BY-4.0 (http://creativecommons.org/licenses/by/4.0/)",
      "source": "https://sketchfab.com/models/b86cb2d3819546bda2d82c4936d2b927",
      "title": "Flow Tree"
    },
    "generator": "Sketchfab-3.18.7",
    "version": "2.0"
  },
  "bufferViews": [
    {
      "buffer": 0,
      "byteLength": 13356,
      "byteOffset": 0,
      "name": "floatBufferViews",
      "target": 34963
    },
    {
      "buffer": 0,
      "byteLength": 29712,
      "byteOffset": 13356,
      "byteStride": 12,
      "name": "floatBufferViews",
      "target": 34962
    },
    {
      "buffer": 0,
      "byteLength": 39616,
      "byteOffset": 43068,
      "byteStride": 16,
      "name": "floatBufferViews",
      "target": 34962
    }
  ],
  "buffers": [
    {
      "byteLength": 82684,
      "uri": "scene.bin"
    }
  ],
  "materials": [
    {
      "doubleSided": true,
      "emissiveFactor": [
        0,
        0,
        0
      ],
      "name": "material0",
      "pbrMetallicRoughness": {
        "baseColorFactor": [
          0.5,
          0.5,
          0.5,
          1
        ],
        "metallicFactor": 0.5322027439,
        "roughnessFactor": 0.70903201220000001
      }
    }
  ],
  "meshes": [
    {
      "name": "Merged_PM3D_Sphere3D3_material0_0",
      "primitives": [
        {
          "attributes": {
            "COLOR_0": 3,
            "NORMAL": 1,
            "POSITION": 0,
            "TANGENT": 2
          },
          "indices": 4,
          "material": 0,
          "mode": 4
        }
      ]
    }
  ],
  "nodes": [
    {
      "children": [
        1
      ],
      "name": "RootNode (gltf orientation matrix)",
      "rotation": [
        -0.70710678118654746,
        -0,
        -0,
        0.70710678118654757
      ]
    },
    {
      "children": [
        2
      ],
      "name": "RootNode (model correction matrix)"
    },
    {
      "children": [
        3
      ],
      "matrix": [
        1,
        0,
        0,
        0,
        0,
        0,
        1,
        0,
        0,
        -1,
        0,
        0,
        0,
        0,
        0,
        1
      ],
      "name": "136efd4ec0c74f799ce2fcfcdbcf3273.fbx"
    },
    {
      "children": [
        4
      ],
      "name": "RootNode"
    },
    {
      "children": [
        5
      ],
      "name": "Merged_PM3D_Sphere3D3"
    },
    {
      "mesh": 0,
      "name": "Merged_PM3D_Sphere3D3_material0_0"
    }
  ],
  "scene": 0,
  "scenes": [
    {
      "name": "OSG_Scene",
      "nodes": [
        0
      ]
    }
  ]
}

