{
  "accessors": [
    {
      "bufferView": 1,
      "componentType": 5126,
      "count": 228,
      "max": [
        0.12200000137090683,
        -0.079999998211860657,
        0.18000000715255737
      ],
      "min": [
        -0.12200000137090683,
        -0.14000000059604645,
        -0.059999998658895493
      ],
      "type": "VEC3"
    },
    {
      "bufferView": 1,
      "byteOffset": 2736,
      "componentType": 5126,
      "count": 228,
      "max": [
        1,
        1,
        1
      ],
      "min": [
        -1,
        -1,
        -1
      ],
      "type": "VEC3"
    },
    {
      "bufferView": 0,
      "componentType": 5125,
      "count": 1344,
      "max": [
        227
      ],
      "min": [
        0
      ],
      "type": "SCALAR"
    },
    {
      "bufferView": 1,
      "byteOffset": 5472,
      "componentType": 5126,
      "count": 107,
      "max": [
        0.5542600154876709,
        0.11999999731779099,
        0.58278298377990723
      ],
      "min": [
        -0.5542600154876709,
        -0.11999999731779099,
        -0.47148200869560242
      ],
      "type": "VEC3"
    },
    {
      "bufferView": 1,
      "byteOffset": 6756,
      "componentType": 5126,
      "count": 107,
      "max": [
        0.94918924570083618,
        1,
        0.80802100896835327
      ],
      "min": [
        -0.94961977005004883,
        -1,
        -0.99826300144195557
      ],
      "type": "VEC3"
    },
    {
      "bufferView": 0,
      "byteOffset": 5376,
      "componentType": 5125,
      "count": 600,
      "max": [
        106
      ],
      "min": [
        0
      ],
      "type": "SCALAR"
    }
  ],
  "asset": {
    "extras": {
      "author": "djesfr (https://sketchfab.com/djesfr)",
      "license": "CC-BY-4.0 (http://creativecommons.org/licenses/by/4.0/)",
      "source": "https://sketchfab.com/3d-models/amiga-days-mario-star-bb8b9d2e10d44eb18582be36c6db1142",
      "title": "Amiga Days - Mario Star"
    },
    "generator": "Sketchfab-9.94.0",
    "version": "2.0"
  },
  "bufferViews": [
    {
      "buffer": 0,
      "byteLength": 7776,
      "byteOffset": 0,
      "name": "floatBufferViews",
      "target": 34963
    },
    {
      "buffer": 0,
      "byteLength": 8040,
      "byteOffset": 7776,
      "byteStride": 12,
      "name": "floatBufferViews",
      "target": 34962
    }
  ],
  "buffers": [
    {
      "byteLength": 15816,
      "uri": "scene.bin"
    }
  ],
  "materials": [
    {
      "doubleSided": true,
      "emissiveFactor": [
        0,
        0,
        0
      ],
      "name": "oeil",
      "pbrMetallicRoughness": {
        "baseColorFactor": [
          0,
          0,
          0,
          1
        ],
        "metallicFactor": 0,
        "roughnessFactor": 0.36652043850208854
      }
    },
    {
      "doubleSided": true,
      "emissiveFactor": [
        0,
        0,
        0
      ],
      "name": "star",
      "pbrMetallicRoughness": {
        "baseColorFactor": [
          1,
          0.7490199999999998,
          0.16078399999999998,
          1
        ],
        "metallicFactor": 0,
        "roughnessFactor": 0.83469377207862883
      }
    }
  ],
  "meshes": [
    {
      "primitives": [
        {
          "attributes": {
            "NORMAL": 1,
            "POSITION": 0
          },
          "indices": 2,
          "material": 0,
          "mode": 4
        }
      ]
    },
    {
      "primitives": [
        {
          "attributes": {
            "NORMAL": 4,
            "POSITION": 3
          },
          "indices": 5,
          "material": 1,
          "mode": 4
        }
      ]
    }
  ],
  "nodes": [
    {
      "children": [
        1
      ],
      "name": "RootNode (gltf orientation matrix)",
      "rotation": [
        -0.70710678118654746,
        -0,
        -0,
        0.70710678118654757
      ]
    },
    {
      "children": [
        2
      ],
      "name": "RootNode (model correction matrix)"
    },
    {
      "children": [
        3,
        4
      ],
      "name": "Amiga-Days_MarioStar.obj.cleaner.materialmerger.gles"
    },
    {
      "mesh": 0,
      "name": ""
    },
    {
      "mesh": 1,
      "name": ""
    }
  ],
  "scene": 0,
  "scenes": [
    {
      "name": "OSG_Scene",
      "nodes": [
        0
      ]
    }
  ]
}

